<svg xmlns="http://www.w3.org/2000/svg" xmlns:xlink="http://www.w3.org/1999/xlink" zoomAndPan="magnify" preserveAspectRatio="xMidYMid meet" version="1.0" viewBox="0 140.39 352.29 97.15"><defs><g/><clipPath id="e4b9b6c625"><path d="M 22 182 L 109.5 182 L 109.5 196 L 22 196 Z M 22 182 " clip-rule="nonzero"/></clipPath><clipPath id="9fcc07ba39"><path d="M 38 148 L 109.5 148 L 109.5 163 L 38 163 Z M 38 148 " clip-rule="nonzero"/></clipPath><clipPath id="eab8d106a9"><path d="M 75 165 L 109.5 165 L 109.5 179 L 75 179 Z M 75 165 " clip-rule="nonzero"/></clipPath><clipPath id="5a749af51b"><path d="M 42 198 L 109.5 198 L 109.5 213 L 42 213 Z M 42 198 " clip-rule="nonzero"/></clipPath><clipPath id="14e74f28e9"><path d="M 48 215 L 109.5 215 L 109.5 229 L 48 229 Z M 48 215 " clip-rule="nonzero"/></clipPath></defs><g clip-path="url(#e4b9b6c625)"><path fill="#0091ff" d="M 147.277344 182.007812 L 76.808594 182.007812 L 73.800781 187.210938 L 66.832031 187.210938 L 63.824219 182.007812 C 61.226562 182.007812 28.714844 182.007812 26.121094 182.007812 L 22.226562 188.75 L 26.121094 195.488281 C 28.714844 195.488281 61.226562 195.488281 63.824219 195.488281 L 66.832031 190.289062 L 73.800781 190.289062 L 76.808594 195.488281 L 147.277344 195.488281 C 148.054688 191.035156 148.054688 186.476562 147.277344 182.007812 Z M 147.277344 182.007812 " fill-opacity="1" fill-rule="nonzero"/></g><g clip-path="url(#9fcc07ba39)"><path fill="#0091ff" d="M 50.527344 162.347656 L 53.539062 157.144531 L 60.503906 157.144531 L 63.515625 162.347656 L 137.808594 162.347656 C 123.847656 146.605469 108.1875 148.855469 89.300781 148.855469 L 63.515625 148.855469 L 60.503906 154.054688 L 53.539062 154.054688 L 50.527344 148.855469 L 42.746094 148.855469 L 38.851562 155.59375 L 42.746094 162.335938 L 50.527344 162.335938 Z M 50.527344 162.347656 " fill-opacity="1" fill-rule="nonzero"/></g><g clip-path="url(#eab8d106a9)"><path fill="#0091ff" d="M 97.070312 170.640625 L 90.101562 170.640625 L 87.09375 165.4375 L 79.308594 165.4375 L 75.417969 172.179688 L 79.308594 178.917969 L 87.09375 178.917969 L 90.101562 173.714844 L 97.070312 173.714844 L 100.082031 178.917969 L 146.625 178.917969 C 145.367188 173.996094 143.1875 169.4375 140.285156 165.425781 L 100.082031 165.425781 Z M 97.070312 170.640625 " fill-opacity="1" fill-rule="nonzero"/></g><path fill="#0091ff" d="M 3.890625 182.007812 L 0 188.75 L 3.890625 195.503906 L 11.6875 195.503906 L 15.582031 188.75 L 11.6875 182.007812 Z M 3.890625 182.007812 " fill-opacity="1" fill-rule="nonzero"/><path fill="#0091ff" d="M 53.191406 172.179688 L 57.082031 178.917969 L 64.878906 178.917969 L 68.769531 172.179688 L 64.878906 165.4375 L 57.082031 165.4375 Z M 53.191406 172.179688 " fill-opacity="1" fill-rule="nonzero"/><path fill="#0091ff" d="M 30.492188 215.152344 L 26.589844 221.90625 L 30.492188 228.644531 L 38.277344 228.644531 L 42.167969 221.90625 L 38.277344 215.152344 Z M 30.492188 215.152344 " fill-opacity="1" fill-rule="nonzero"/><g clip-path="url(#5a749af51b)"><path fill="#0091ff" d="M 63.824219 203.78125 L 56.855469 203.78125 L 53.84375 198.578125 L 46.0625 198.578125 L 42.167969 205.320312 L 46.0625 212.0625 L 53.84375 212.0625 L 56.855469 206.859375 L 63.824219 206.859375 L 66.832031 212.0625 L 140.269531 212.0625 C 143.171875 208.046875 145.351562 203.488281 146.609375 198.566406 C 122.230469 198.566406 91.199219 198.566406 66.820312 198.566406 Z M 63.824219 203.78125 " fill-opacity="1" fill-rule="nonzero"/></g><g clip-path="url(#14e74f28e9)"><path fill="#0091ff" d="M 83.777344 220.367188 L 76.808594 220.367188 L 73.800781 215.164062 C 66.777344 215.164062 59.742188 215.164062 52.707031 215.164062 L 48.816406 221.90625 L 52.707031 228.644531 C 59.742188 228.644531 66.765625 228.644531 73.800781 228.644531 L 76.808594 223.441406 L 83.777344 223.441406 L 86.785156 228.644531 C 106.726562 228.644531 123.484375 231.308594 137.808594 215.152344 L 86.785156 215.152344 Z M 83.777344 220.367188 " fill-opacity="1" fill-rule="nonzero"/></g><g fill="#0cc0df" fill-opacity="1"><g transform="translate(126.43116, 192.150406)"><g><path d="M 2.15625 -25.09375 L 17.21875 -25.09375 C 19.726562 -25.09375 21.550781 -24.523438 22.6875 -23.390625 C 23.820312 -22.253906 24.390625 -20.429688 24.390625 -17.921875 L 24.390625 -14.703125 C 24.390625 -12.710938 24.054688 -11.164062 23.390625 -10.0625 C 22.734375 -8.96875 21.691406 -8.242188 20.265625 -7.890625 L 24.75 0 L 17.75 0 L 13.625 -7.53125 L 8.609375 -7.53125 L 8.609375 0 L 2.15625 0 Z M 17.921875 -17.921875 C 17.921875 -19.359375 17.207031 -20.078125 15.78125 -20.078125 L 8.609375 -20.078125 L 8.609375 -12.546875 L 15.78125 -12.546875 C 17.207031 -12.546875 17.921875 -13.265625 17.921875 -14.703125 Z M 17.921875 -17.921875 "/></g></g></g><g fill="#0cc0df" fill-opacity="1"><g transform="translate(159.425237, 192.150406)"><g><path d="M 2.15625 0 Z M 22.046875 0 L 2.15625 0 L 2.15625 -25.09375 L 22.046875 -25.09375 L 22.046875 -20.078125 L 8.609375 -20.078125 L 8.609375 -15.234375 L 19.1875 -15.234375 L 19.1875 -10.21875 L 8.609375 -10.21875 L 8.609375 -5.015625 L 22.046875 -5.015625 Z M 9.578125 -26.203125 L 11.734375 -32.296875 L 18.1875 -32.296875 L 14.234375 -26.203125 Z M 9.578125 -26.203125 "/></g></g></g><g fill="#0cc0df" fill-opacity="1"><g transform="translate(189.371037, 192.150406)"><g><path d="M 23.671875 -0.53125 C 18.078125 0.0625 12.9375 0.359375 8.25 0.359375 C 5.90625 0.359375 4.179688 -0.1875 3.078125 -1.28125 C 1.984375 -2.382812 1.4375 -4.109375 1.4375 -6.453125 L 1.4375 -17.921875 C 1.4375 -20.429688 2.003906 -22.253906 3.140625 -23.390625 C 4.273438 -24.523438 6.097656 -25.09375 8.609375 -25.09375 L 21.515625 -25.09375 L 21.515625 -20.078125 L 10.046875 -20.078125 C 8.609375 -20.078125 7.890625 -19.359375 7.890625 -17.921875 L 7.890625 -6.453125 C 7.890625 -5.898438 8.050781 -5.460938 8.375 -5.140625 C 8.695312 -4.816406 9.132812 -4.65625 9.6875 -4.65625 C 12.4375 -4.65625 14.945312 -4.71875 17.21875 -4.84375 L 17.21875 -10.046875 L 12.546875 -10.046875 L 12.546875 -14.34375 L 23.671875 -14.34375 Z M 23.671875 -0.53125 "/></g></g></g><g fill="#0cc0df" fill-opacity="1"><g transform="translate(221.647874, 192.150406)"><g><path d="M 13.984375 0 L 1.078125 0 L 1.078125 -5.015625 L 4.296875 -5.015625 L 4.296875 -20.078125 L 1.078125 -20.078125 L 1.078125 -25.09375 L 13.984375 -25.09375 L 13.984375 -20.078125 L 10.75 -20.078125 L 10.75 -5.015625 L 13.984375 -5.015625 Z M 13.984375 0 "/></g></g></g><g fill="#0cc0df" fill-opacity="1"><g transform="translate(243.883317, 192.150406)"><g><path d="M 1.40625 -5.203125 C 7.945312 -4.835938 12.378906 -4.65625 14.703125 -4.65625 C 15.253906 -4.65625 15.691406 -4.816406 16.015625 -5.140625 C 16.335938 -5.460938 16.5 -5.898438 16.5 -6.453125 L 16.5 -9.6875 L 8.25 -9.6875 C 5.738281 -9.6875 3.914062 -10.253906 2.78125 -11.390625 C 1.644531 -12.523438 1.078125 -14.347656 1.078125 -16.859375 L 1.078125 -17.921875 C 1.078125 -20.429688 1.644531 -22.253906 2.78125 -23.390625 C 3.914062 -24.523438 5.738281 -25.09375 8.25 -25.09375 L 20.828125 -25.09375 L 20.828125 -20.078125 L 9.6875 -20.078125 C 8.25 -20.078125 7.53125 -19.359375 7.53125 -17.921875 L 7.53125 -17.21875 C 7.53125 -15.78125 8.25 -15.0625 9.6875 -15.0625 L 16.140625 -15.0625 C 18.484375 -15.0625 20.203125 -14.507812 21.296875 -13.40625 C 22.398438 -12.3125 22.953125 -10.59375 22.953125 -8.25 L 22.953125 -6.453125 C 22.953125 -4.109375 22.398438 -2.382812 21.296875 -1.28125 C 20.203125 -0.1875 18.484375 0.359375 16.140625 0.359375 C 14.921875 0.359375 13.628906 0.332031 12.265625 0.28125 L 8.96875 0.140625 C 6.53125 0.0234375 4.007812 -0.140625 1.40625 -0.359375 Z M 1.40625 -5.203125 "/></g></g></g><g fill="#0cc0df" fill-opacity="1"><g transform="translate(131.115791, 225.832879)"><g><path d="M 1.296875 -15.109375 L 10.359375 -15.109375 C 11.867188 -15.109375 12.96875 -14.765625 13.65625 -14.078125 C 14.34375 -13.398438 14.6875 -12.304688 14.6875 -10.796875 L 14.6875 -8.640625 C 14.6875 -7.128906 14.34375 -6.03125 13.65625 -5.34375 C 12.96875 -4.65625 11.867188 -4.3125 10.359375 -4.3125 L 5.1875 -4.3125 L 5.1875 0 L 1.296875 0 Z M 10.796875 -10.796875 C 10.796875 -11.660156 10.363281 -12.09375 9.5 -12.09375 L 5.1875 -12.09375 L 5.1875 -7.34375 L 9.5 -7.34375 C 10.363281 -7.34375 10.796875 -7.773438 10.796875 -8.640625 Z M 10.796875 -10.796875 "/></g></g></g><g fill="#0cc0df" fill-opacity="1"><g transform="translate(158.274888, 225.832879)"><g><path d="M 11.015625 -11.015625 C 11.015625 -11.878906 10.582031 -12.3125 9.71875 -12.3125 L 6.046875 -12.3125 C 5.179688 -12.3125 4.75 -11.878906 4.75 -11.015625 L 4.75 -4.109375 C 4.75 -3.242188 5.179688 -2.8125 6.046875 -2.8125 L 9.71875 -2.8125 C 10.582031 -2.8125 11.015625 -3.242188 11.015625 -4.109375 Z M 14.90625 -4.109375 C 14.90625 -2.585938 14.5625 -1.484375 13.875 -0.796875 C 13.1875 -0.117188 12.085938 0.21875 10.578125 0.21875 L 5.1875 0.21875 C 3.675781 0.21875 2.578125 -0.117188 1.890625 -0.796875 C 1.203125 -1.484375 0.859375 -2.585938 0.859375 -4.109375 L 0.859375 -11.015625 C 0.859375 -12.523438 1.203125 -13.617188 1.890625 -14.296875 C 2.578125 -14.984375 3.675781 -15.328125 5.1875 -15.328125 L 10.578125 -15.328125 C 12.085938 -15.328125 13.1875 -14.984375 13.875 -14.296875 C 14.5625 -13.617188 14.90625 -12.523438 14.90625 -11.015625 Z M 14.90625 -4.109375 "/></g></g></g><g fill="#0cc0df" fill-opacity="1"><g transform="translate(185.865632, 225.832879)"><g><path d="M 1.296875 -15.109375 L 10.359375 -15.109375 C 11.867188 -15.109375 12.96875 -14.765625 13.65625 -14.078125 C 14.34375 -13.398438 14.6875 -12.304688 14.6875 -10.796875 L 14.6875 -8.859375 C 14.6875 -7.660156 14.488281 -6.726562 14.09375 -6.0625 C 13.695312 -5.40625 13.066406 -4.96875 12.203125 -4.75 L 14.90625 0 L 10.6875 0 L 8.203125 -4.53125 L 5.1875 -4.53125 L 5.1875 0 L 1.296875 0 Z M 10.796875 -10.796875 C 10.796875 -11.660156 10.363281 -12.09375 9.5 -12.09375 L 5.1875 -12.09375 L 5.1875 -7.5625 L 9.5 -7.5625 C 10.363281 -7.5625 10.796875 -7.992188 10.796875 -8.859375 Z M 10.796875 -10.796875 "/></g></g></g><g fill="#0cc0df" fill-opacity="1"><g transform="translate(213.24056, 225.832879)"><g><path d="M 8.640625 0 L 4.75 0 L 4.75 -12.09375 L 0.21875 -12.09375 L 0.21875 -15.109375 L 13.171875 -15.109375 L 13.171875 -12.09375 L 8.640625 -12.09375 Z M 8.640625 0 "/></g></g></g><g fill="#0cc0df" fill-opacity="1"><g transform="translate(238.457256, 225.832879)"><g><path d="M 5.1875 0 L 1.296875 0 L 1.296875 -15.109375 L 13.28125 -15.109375 L 13.28125 -12.09375 L 5.1875 -12.09375 L 5.1875 -8.53125 L 11.546875 -8.53125 L 11.546875 -5.5 L 5.1875 -5.5 Z M 5.1875 0 "/></g></g></g><g fill="#0cc0df" fill-opacity="1"><g transform="translate(263.781859, 225.832879)"><g><path d="M 0.859375 0 Z M 11.015625 -11.015625 C 11.015625 -11.878906 10.582031 -12.3125 9.71875 -12.3125 L 6.046875 -12.3125 C 5.179688 -12.3125 4.75 -11.878906 4.75 -11.015625 L 4.75 -4.109375 C 4.75 -3.242188 5.179688 -2.8125 6.046875 -2.8125 L 9.71875 -2.8125 C 10.582031 -2.8125 11.015625 -3.242188 11.015625 -4.109375 Z M 14.90625 -4.109375 C 14.90625 -2.585938 14.5625 -1.484375 13.875 -0.796875 C 13.1875 -0.117188 12.085938 0.21875 10.578125 0.21875 L 5.1875 0.21875 C 3.675781 0.21875 2.578125 -0.117188 1.890625 -0.796875 C 1.203125 -1.484375 0.859375 -2.585938 0.859375 -4.109375 L 0.859375 -11.015625 C 0.859375 -12.523438 1.203125 -13.617188 1.890625 -14.296875 C 2.578125 -14.984375 3.675781 -15.328125 5.1875 -15.328125 L 10.578125 -15.328125 C 12.085938 -15.328125 13.1875 -14.984375 13.875 -14.296875 C 14.5625 -13.617188 14.90625 -12.523438 14.90625 -11.015625 Z M 6.375 -16 L 7.671875 -19.671875 L 11.5625 -19.671875 L 9.171875 -16 Z M 6.375 -16 "/></g></g></g><g fill="#0cc0df" fill-opacity="1"><g transform="translate(291.372606, 225.832879)"><g><path d="M 5.1875 -3.015625 L 13.0625 -3.015625 L 13.0625 0 L 1.296875 0 L 1.296875 -15.109375 L 5.1875 -15.109375 Z M 5.1875 -3.015625 "/></g></g></g><g fill="#0cc0df" fill-opacity="1"><g transform="translate(316.481394, 225.832879)"><g><path d="M 8.421875 0 L 0.640625 0 L 0.640625 -3.015625 L 2.59375 -3.015625 L 2.59375 -12.09375 L 0.640625 -12.09375 L 0.640625 -15.109375 L 8.421875 -15.109375 L 8.421875 -12.09375 L 6.484375 -12.09375 L 6.484375 -3.015625 L 8.421875 -3.015625 Z M 8.421875 0 "/></g></g></g><g fill="#0cc0df" fill-opacity="1"><g transform="translate(337.381626, 225.832879)"><g><path d="M 11.015625 -11.015625 C 11.015625 -11.878906 10.582031 -12.3125 9.71875 -12.3125 L 6.046875 -12.3125 C 5.179688 -12.3125 4.75 -11.878906 4.75 -11.015625 L 4.75 -4.109375 C 4.75 -3.242188 5.179688 -2.8125 6.046875 -2.8125 L 9.71875 -2.8125 C 10.582031 -2.8125 11.015625 -3.242188 11.015625 -4.109375 Z M 14.90625 -4.109375 C 14.90625 -2.585938 14.5625 -1.484375 13.875 -0.796875 C 13.1875 -0.117188 12.085938 0.21875 10.578125 0.21875 L 5.1875 0.21875 C 3.675781 0.21875 2.578125 -0.117188 1.890625 -0.796875 C 1.203125 -1.484375 0.859375 -2.585938 0.859375 -4.109375 L 0.859375 -11.015625 C 0.859375 -12.523438 1.203125 -13.617188 1.890625 -14.296875 C 2.578125 -14.984375 3.675781 -15.328125 5.1875 -15.328125 L 10.578125 -15.328125 C 12.085938 -15.328125 13.1875 -14.984375 13.875 -14.296875 C 14.5625 -13.617188 14.90625 -12.523438 14.90625 -11.015625 Z M 14.90625 -4.109375 "/></g></g></g><path stroke-linecap="round" transform="matrix(0, 0.75, -0.75, 0, 101.775444, 141.011021)" fill="none" stroke-linejoin="miter" d="M 2.50093 2.497467 L 125.365522 2.497467 " stroke="#0091ff" stroke-width="5" stroke-opacity="1" stroke-miterlimit="4"/></svg>